<svg xmlns="http://www.w3.org/2000/svg" xmlns:xlink="http://www.w3.org/1999/xlink" style="width: 100%; height: 100%" viewBox="0 0 220 10" preserveAspectRatio="none" width="220" height="10"><defs><svg width="220" height="10" viewBox="0 0 220 10" fill="none" xmlns="http://www.w3.org/2000/svg" id="svg-1197860524_21504">
<mask id="svg-1197860524_21504_path-1-inside-1_451_9255" fill="#FFFFFF">
<path fill-rule="evenodd" clip-rule="evenodd" d="M55.8685 6.9968C54.7874 6.27609 54.073 5.79997 52.3998 5.79997C51.0744 5.79997 50 4.72558 50 3.40019C50 2.07479 51.0744 1.00031 52.3998 1C55.5264 1 57.1922 2.11063 58.5309 3.00312L58.531 3.00318C59.6117 3.72369 60.3261 4.19981 61.9988 4.19981C63.6716 4.19981 64.3858 3.72389 65.4666 3.00318C66.805 2.11078 68.4707 1.0002 71.5971 1.0002C74.7233 1.0002 76.3893 2.11088 77.7278 3.00318L77.7278 3.00322C78.8089 3.72391 79.5231 4.20001 81.1965 4.20001C82.8697 4.20001 83.5839 3.72389 84.6648 3.00318L84.6649 3.00309C86.0036 2.1107 87.6694 1.0002 90.7957 1.0002C93.9221 1.0002 95.588 2.11063 96.9266 3.00287L96.927 3.00318L96.9271 3.00323C98.0082 3.72391 98.7224 4.20001 100.396 4.20001C102.069 4.20001 102.783 3.72409 103.864 3.00339L103.864 3.00329C105.203 2.11091 106.869 1.00041 109.996 1.00041C110.068 1.00041 110.139 1.00358 110.209 1.0098C110.281 1.00333 110.354 1.00002 110.427 1C113.554 1 115.22 2.11062 116.558 3.00311L116.558 3.00318C117.639 3.72369 118.353 4.19981 120.026 4.19981C121.699 4.19981 122.413 3.72389 123.494 3.00318C124.832 2.11078 126.498 1.0002 129.624 1.0002C132.751 1.0002 134.417 2.11088 135.755 3.00318L135.755 3.00322C136.836 3.72391 137.55 4.20001 139.224 4.20001C140.897 4.20001 141.611 3.72389 142.692 3.00318L142.692 3.00308C144.031 2.1107 145.697 1.0002 148.823 1.0002C151.949 1.0002 153.615 2.11063 154.954 3.00287L154.954 3.00318L154.954 3.00323C156.036 3.72391 156.75 4.20001 158.423 4.20001C160.096 4.20001 160.81 3.72409 161.892 3.00339L161.892 3.00329C163.23 2.11091 164.896 1.00041 168.023 1.00041C169.348 1.00041 170.423 2.075 170.423 3.40039C170.423 4.72568 169.348 5.80017 168.023 5.80017C166.349 5.80017 165.635 6.27626 164.554 6.99692L164.554 6.99701L164.554 6.99709C163.215 7.88947 161.549 8.99998 158.423 8.99998C155.297 8.99998 153.631 7.88962 152.293 6.99739L152.292 6.99701C151.211 6.2763 150.496 5.80017 148.823 5.80017C147.15 5.80017 146.436 6.27619 145.355 6.9968C144.016 7.8892 142.35 8.99978 139.224 8.99978C136.097 8.99978 134.432 7.8893 133.093 6.9968L133.092 6.99636C132.012 6.2761 131.297 5.80017 129.625 5.80017C127.952 5.80017 127.238 6.27609 126.157 6.9968C124.818 7.8892 123.153 8.99978 120.026 8.99978C116.9 8.99978 115.235 7.88939 113.896 6.99716L113.896 6.9968C112.815 6.27609 112.1 5.79997 110.427 5.79997C110.355 5.79997 110.283 5.79677 110.212 5.7905C110.141 5.7969 110.069 5.80017 109.996 5.80017C108.322 5.80017 107.608 6.27626 106.527 6.99692L106.526 6.99701L106.526 6.99708C105.188 7.88947 103.522 8.99998 100.396 8.99998C97.2697 8.99998 95.6039 7.88962 94.2653 6.99739L94.2647 6.99701C93.1836 6.2763 92.4691 5.80017 90.7957 5.80017C89.1225 5.80017 88.4082 6.27619 87.3274 6.9968C85.9888 7.8892 84.3227 8.99978 81.1965 8.99978C78.0698 8.99978 76.4042 7.8893 75.0656 6.9968L75.0649 6.99636C73.9842 6.2761 73.27 5.80017 71.5972 5.80017C69.9245 5.80017 69.2102 6.27609 68.1294 6.9968C66.791 7.8892 65.1253 8.99978 61.9989 8.99978C58.873 8.99978 57.2074 7.88939 55.8691 6.99715L55.8685 6.9968Z" fill="#FFFFFF"></path>
</mask>
<path fill-rule="evenodd" clip-rule="evenodd" d="M55.8685 6.9968C54.7874 6.27609 54.073 5.79997 52.3998 5.79997C51.0744 5.79997 50 4.72558 50 3.40019C50 2.07479 51.0744 1.00031 52.3998 1C55.5264 1 57.1922 2.11063 58.5309 3.00312L58.531 3.00318C59.6117 3.72369 60.3261 4.19981 61.9988 4.19981C63.6716 4.19981 64.3858 3.72389 65.4666 3.00318C66.805 2.11078 68.4707 1.0002 71.5971 1.0002C74.7233 1.0002 76.3893 2.11088 77.7278 3.00318L77.7278 3.00322C78.8089 3.72391 79.5231 4.20001 81.1965 4.20001C82.8697 4.20001 83.5839 3.72389 84.6648 3.00318L84.6649 3.00309C86.0036 2.1107 87.6694 1.0002 90.7957 1.0002C93.9221 1.0002 95.588 2.11063 96.9266 3.00287L96.927 3.00318L96.9271 3.00323C98.0082 3.72391 98.7224 4.20001 100.396 4.20001C102.069 4.20001 102.783 3.72409 103.864 3.00339L103.864 3.00329C105.203 2.11091 106.869 1.00041 109.996 1.00041C110.068 1.00041 110.139 1.00358 110.209 1.0098C110.281 1.00333 110.354 1.00002 110.427 1C113.554 1 115.22 2.11062 116.558 3.00311L116.558 3.00318C117.639 3.72369 118.353 4.19981 120.026 4.19981C121.699 4.19981 122.413 3.72389 123.494 3.00318C124.832 2.11078 126.498 1.0002 129.624 1.0002C132.751 1.0002 134.417 2.11088 135.755 3.00318L135.755 3.00322C136.836 3.72391 137.55 4.20001 139.224 4.20001C140.897 4.20001 141.611 3.72389 142.692 3.00318L142.692 3.00308C144.031 2.1107 145.697 1.0002 148.823 1.0002C151.949 1.0002 153.615 2.11063 154.954 3.00287L154.954 3.00318L154.954 3.00323C156.036 3.72391 156.75 4.20001 158.423 4.20001C160.096 4.20001 160.81 3.72409 161.892 3.00339L161.892 3.00329C163.23 2.11091 164.896 1.00041 168.023 1.00041C169.348 1.00041 170.423 2.075 170.423 3.40039C170.423 4.72568 169.348 5.80017 168.023 5.80017C166.349 5.80017 165.635 6.27626 164.554 6.99692L164.554 6.99701L164.554 6.99709C163.215 7.88947 161.549 8.99998 158.423 8.99998C155.297 8.99998 153.631 7.88962 152.293 6.99739L152.292 6.99701C151.211 6.2763 150.496 5.80017 148.823 5.80017C147.15 5.80017 146.436 6.27619 145.355 6.9968C144.016 7.8892 142.35 8.99978 139.224 8.99978C136.097 8.99978 134.432 7.8893 133.093 6.9968L133.092 6.99636C132.012 6.2761 131.297 5.80017 129.625 5.80017C127.952 5.80017 127.238 6.27609 126.157 6.9968C124.818 7.8892 123.153 8.99978 120.026 8.99978C116.9 8.99978 115.235 7.88939 113.896 6.99716L113.896 6.9968C112.815 6.27609 112.1 5.79997 110.427 5.79997C110.355 5.79997 110.283 5.79677 110.212 5.7905C110.141 5.7969 110.069 5.80017 109.996 5.80017C108.322 5.80017 107.608 6.27626 106.527 6.99692L106.526 6.99701L106.526 6.99708C105.188 7.88947 103.522 8.99998 100.396 8.99998C97.2697 8.99998 95.6039 7.88962 94.2653 6.99739L94.2647 6.99701C93.1836 6.2763 92.4691 5.80017 90.7957 5.80017C89.1225 5.80017 88.4082 6.27619 87.3274 6.9968C85.9888 7.8892 84.3227 8.99978 81.1965 8.99978C78.0698 8.99978 76.4042 7.8893 75.0656 6.9968L75.0649 6.99636C73.9842 6.2761 73.27 5.80017 71.5972 5.80017C69.9245 5.80017 69.2102 6.27609 68.1294 6.9968C66.791 7.8892 65.1253 8.99978 61.9989 8.99978C58.873 8.99978 57.2074 7.88939 55.8691 6.99715L55.8685 6.9968Z" fill="#D1BA99"></path>
<path d="M55.8685 6.9968L55.1764 8.03514L55.177 8.03556L55.8685 6.9968ZM52.3998 1L52.3998 -0.247907L52.3995 -0.247907L52.3998 1ZM58.5309 3.00312L59.2248 1.96597L59.2231 1.96482L58.5309 3.00312ZM58.531 3.00318L57.837 4.04033L57.8387 4.04149L58.531 3.00318ZM65.4666 3.00318L64.7743 1.96492L64.7743 1.96494L65.4666 3.00318ZM77.7278 3.00318L77.0356 4.0415L77.0466 4.04887L77.0578 4.05599L77.7278 3.00318ZM77.7278 3.00322L78.42 1.96489L78.409 1.95753L78.3978 1.95041L77.7278 3.00322ZM84.6648 3.00318L83.989 1.95413L83.9807 1.95945L83.9725 1.96491L84.6648 3.00318ZM84.6649 3.00309L85.3408 4.05214L85.349 4.04684L85.3571 4.04142L84.6649 3.00309ZM96.9266 3.00287L97.6225 1.96704L97.6187 1.9645L96.9266 3.00287ZM96.927 3.00318L96.2311 4.03901L96.2405 4.04532L96.25 4.05147L96.927 3.00318ZM96.9271 3.00323L97.6193 1.96489L97.6118 1.95986L97.6041 1.95494L96.9271 3.00323ZM103.864 3.00339L103.173 1.96423L103.172 1.96505L103.864 3.00339ZM103.864 3.00329L104.555 4.04245L104.557 4.04163L103.864 3.00329ZM110.209 1.0098L110.1 2.25287L110.21 2.26266L110.321 2.25266L110.209 1.0098ZM110.427 1L110.427 -0.247907L110.427 -0.247907L110.427 1ZM116.558 3.00311L115.866 4.04141L115.884 4.05316L115.902 4.0643L116.558 3.00311ZM116.558 3.00318L117.251 1.96488L117.233 1.95313L117.215 1.94199L116.558 3.00318ZM123.494 3.00318L122.802 1.96492L122.802 1.96494L123.494 3.00318ZM135.755 3.00318L135.063 4.0415L135.094 4.06225L135.126 4.0811L135.755 3.00318ZM135.755 3.00322L136.447 1.96489L136.416 1.94415L136.384 1.92531L135.755 3.00322ZM142.692 3.00318L142.017 1.95347L142.009 1.95911L142 1.96491L142.692 3.00318ZM142.692 3.00308L143.367 4.05279L143.376 4.04717L143.384 4.04141L142.692 3.00308ZM154.954 3.00287L155.657 1.97149L155.646 1.9645L154.954 3.00287ZM154.954 3.00318L155.683 1.98986L155.67 1.9807L155.657 1.97185L154.954 3.00318ZM154.954 3.00323L154.226 4.01655L154.244 4.02938L154.262 4.04157L154.954 3.00323ZM161.892 3.00339L162.584 4.04172L162.591 4.03677L162.598 4.03171L161.892 3.00339ZM161.892 3.00329L161.199 1.96496L161.192 1.96991L161.185 1.97496L161.892 3.00329ZM164.554 6.99692L165.223 8.05018L165.235 8.04287L165.246 8.03531L164.554 6.99692ZM164.554 6.99701L163.885 5.94374L163.861 5.95869L163.838 5.97468L164.554 6.99701ZM164.554 6.99709L165.246 8.03539L165.258 8.02753L165.269 8.01941L164.554 6.99709ZM152.293 6.99739L151.6 8.03531L151.601 8.03576L152.293 6.99739ZM152.292 6.99701L152.985 5.95908L152.984 5.95867L152.292 6.99701ZM145.355 6.9968L146.047 8.03514L146.047 8.03509L145.355 6.9968ZM133.093 6.9968L133.785 5.9585L133.781 5.95607L133.093 6.9968ZM133.092 6.99636L132.4 8.03479L132.404 8.03709L133.092 6.99636ZM126.157 6.9968L126.849 8.03506L126.849 8.03505L126.157 6.9968ZM113.896 6.99716L113.201 8.03331L113.204 8.03548L113.896 6.99716ZM113.896 6.9968L114.591 5.96065L114.588 5.95847L113.896 6.9968ZM110.212 5.7905L110.323 4.54747L110.212 4.53765L110.101 4.54757L110.212 5.7905ZM106.527 6.99692L107.213 8.03889L107.219 8.03532L106.527 6.99692ZM106.526 6.99701L107.197 8.04927L107.205 8.04418L107.213 8.03896L106.526 6.99701ZM106.526 6.99708L105.856 5.94481L105.845 5.95168L105.834 5.95877L106.526 6.99708ZM94.2653 6.99739L93.5731 8.03572L93.5732 8.03576L94.2653 6.99739ZM94.2647 6.99701L94.9569 5.95868L94.9569 5.95867L94.2647 6.99701ZM87.3274 6.9968L88.0196 8.03514L88.0197 8.03509L87.3274 6.9968ZM75.0656 6.9968L74.3728 8.03478L74.3733 8.0351L75.0656 6.9968ZM75.0649 6.99636L75.7576 5.95839L75.757 5.95794L75.0649 6.99636ZM68.1294 6.9968L68.8217 8.03506L68.8217 8.03505L68.1294 6.9968ZM55.8691 6.99715L56.5613 5.95883L56.5606 5.95839L55.8691 6.99715ZM52.3998 7.04788C53.1075 7.04788 53.5427 7.14676 53.8928 7.2868C54.2742 7.43934 54.6154 7.6612 55.1764 8.03514L56.5607 5.95847C56.0406 5.6117 55.484 5.23514 54.8196 4.96944C54.124 4.69124 53.3654 4.55206 52.3998 4.55206V7.04788ZM48.7521 3.40019C48.7521 5.41478 50.3852 7.04788 52.3998 7.04788V4.55206C51.7636 4.55206 51.2479 4.03638 51.2479 3.40019H48.7521ZM52.3995 -0.247907C50.3851 -0.247442 48.7521 1.38561 48.7521 3.40019H51.2479C51.2479 2.76398 51.7637 2.24805 52.4001 2.24791L52.3995 -0.247907ZM59.2231 1.96482C57.8213 1.03018 55.9008 -0.247907 52.3998 -0.247907V2.24791C55.152 2.24791 56.5632 3.19108 57.8386 4.04141L59.2231 1.96482ZM59.2249 1.96604L59.2248 1.96597L57.8369 4.04026L57.837 4.04033L59.2249 1.96604ZM61.9988 2.9519C61.2914 2.9519 60.8564 2.85303 60.5063 2.71302C60.125 2.56051 59.7839 2.3387 59.2232 1.96488L57.8387 4.04149C58.3587 4.38817 58.9152 4.76467 59.5794 5.03035C60.2749 5.30852 61.0334 5.44772 61.9988 5.44772V2.9519ZM64.7743 1.96494C64.2136 2.33882 63.8725 2.56062 63.4913 2.71308C63.1413 2.85306 62.7063 2.9519 61.9988 2.9519V5.44772C62.9641 5.44772 63.7226 5.30859 64.4181 5.03044C65.0824 4.76477 65.6389 4.38825 66.159 4.04143L64.7743 1.96494ZM71.5971 -0.247703C68.0963 -0.247703 66.176 1.03033 64.7743 1.96492L66.159 4.04144C67.434 3.19123 68.8451 2.24811 71.5971 2.24811V-0.247703ZM78.42 1.96486C77.0184 1.03044 75.0977 -0.247703 71.5971 -0.247703V2.24811C74.3489 2.24811 75.7603 3.19133 77.0356 4.0415L78.42 1.96486ZM78.3978 1.95041L78.3977 1.95037L77.0578 4.05599L77.0579 4.05603L78.3978 1.95041ZM81.1965 2.95211C80.4887 2.95211 80.0536 2.85322 79.7035 2.7132C79.3221 2.56068 78.981 2.33884 78.42 1.96489L77.0356 4.04156C77.5558 4.38829 78.1123 4.76485 78.7767 5.03055C79.4723 5.30875 80.2309 5.44792 81.1965 5.44792V2.95211ZM83.9725 1.96491C83.4117 2.33886 83.0706 2.56069 82.6893 2.71321C82.3393 2.85323 81.9042 2.95211 81.1965 2.95211V5.44792C82.1621 5.44792 82.9207 5.30874 83.6162 5.03052C84.2805 4.7648 84.837 4.38821 85.3571 4.04146L83.9725 1.96491ZM83.9891 1.95403L83.989 1.95413L85.3406 4.05224L85.3408 4.05214L83.9891 1.95403ZM90.7957 -0.247703C87.295 -0.247703 85.3746 1.03024 83.9727 1.96475L85.3571 4.04142C86.6326 3.19117 88.0438 2.24811 90.7957 2.24811V-0.247703ZM97.6187 1.9645C96.2169 1.03012 94.2965 -0.247703 90.7957 -0.247703V2.24811C93.5478 2.24811 94.9591 3.19114 96.2344 4.04124L97.6187 1.9645ZM97.623 1.96736L97.6225 1.96705L96.2306 4.0387L96.2311 4.03901L97.623 1.96736ZM97.6041 1.95494L97.6041 1.95489L96.25 4.05147L96.2501 4.05152L97.6041 1.95494ZM100.396 2.95211C99.688 2.95211 99.2528 2.85322 98.9027 2.7132C98.5214 2.56068 98.1803 2.33884 97.6193 1.96489L96.2349 4.04156C96.755 4.38829 97.3116 4.76485 97.9759 5.03055C98.6715 5.30875 99.4302 5.44792 100.396 5.44792V2.95211ZM103.172 1.96505C102.611 2.33896 102.27 2.56078 101.889 2.71326C101.538 2.85326 101.103 2.95211 100.396 2.95211V5.44792C101.361 5.44792 102.12 5.3088 102.815 5.03067C103.48 4.76501 104.036 4.38852 104.556 4.04172L103.172 1.96505ZM103.173 1.96414L103.173 1.96423L104.555 4.04254L104.555 4.04245L103.173 1.96414ZM109.996 -0.247499C106.494 -0.247499 104.574 1.03042 103.172 1.96496L104.557 4.04163C105.832 3.19141 107.243 2.24831 109.996 2.24831V-0.247499ZM110.319 -0.233273C110.212 -0.242707 110.104 -0.247499 109.996 -0.247499V2.24831C110.031 2.24831 110.066 2.24987 110.1 2.25287L110.319 -0.233273ZM110.427 -0.247907C110.316 -0.247881 110.206 -0.24288 110.097 -0.233063L110.321 2.25266C110.356 2.24954 110.391 2.24791 110.427 2.24791L110.427 -0.247907ZM117.25 1.96481C115.849 1.03017 113.928 -0.247907 110.427 -0.247907V2.24791C113.179 2.24791 114.591 3.19107 115.866 4.04141L117.25 1.96481ZM117.215 1.94199L117.215 1.94192L115.902 4.0643L115.902 4.06437L117.215 1.94199ZM120.026 2.9519C119.319 2.9519 118.884 2.85303 118.534 2.71302C118.152 2.56051 117.811 2.3387 117.251 1.96488L115.866 4.04149C116.386 4.38817 116.943 4.76467 117.607 5.03035C118.302 5.30852 119.061 5.44772 120.026 5.44772V2.9519ZM122.802 1.96494C122.241 2.33882 121.9 2.56062 121.519 2.71308C121.169 2.85306 120.734 2.9519 120.026 2.9519V5.44772C120.991 5.44772 121.75 5.30859 122.445 5.03044C123.11 4.76477 123.666 4.38825 124.186 4.04143L122.802 1.96494ZM129.624 -0.247703C126.124 -0.247703 124.203 1.03033 122.802 1.96492L124.186 4.04144C125.461 3.19123 126.872 2.24811 129.624 2.24811V-0.247703ZM136.447 1.96486C135.046 1.03044 133.125 -0.247703 129.624 -0.247703V2.24811C132.376 2.24811 133.788 3.19133 135.063 4.0415L136.447 1.96486ZM136.384 1.92531L136.384 1.92527L135.126 4.0811L135.126 4.08114L136.384 1.92531ZM139.224 2.95211C138.516 2.95211 138.081 2.85322 137.731 2.7132C137.349 2.56068 137.008 2.33884 136.447 1.96489L135.063 4.04156C135.583 4.38829 136.14 4.76485 136.804 5.03055C137.5 5.30875 138.258 5.44792 139.224 5.44792V2.95211ZM142 1.96491C141.439 2.33886 141.098 2.56069 140.717 2.71321C140.367 2.85323 139.932 2.95211 139.224 2.95211V5.44792C140.189 5.44792 140.948 5.30874 141.644 5.03052C142.308 4.76479 142.864 4.38821 143.384 4.04146L142 1.96491ZM142.017 1.95337L142.017 1.95347L143.367 4.05289L143.367 4.05279L142.017 1.95337ZM148.823 -0.247703C145.322 -0.247703 143.402 1.03023 142 1.96475L143.384 4.04141C144.66 3.19117 146.071 2.24811 148.823 2.24811V-0.247703ZM155.646 1.9645C154.244 1.03012 152.324 -0.247703 148.823 -0.247703V2.24811C151.575 2.24811 152.986 3.19114 154.262 4.04124L155.646 1.9645ZM155.657 1.97185L155.657 1.97154L154.251 4.0342L154.252 4.03451L155.657 1.97185ZM155.683 1.98991L155.683 1.98986L154.226 4.0165L154.226 4.01655L155.683 1.98991ZM158.423 2.95211C157.715 2.95211 157.28 2.85322 156.93 2.7132C156.549 2.56068 156.208 2.33885 155.647 1.96489L154.262 4.04157C154.782 4.3883 155.339 4.76486 156.003 5.03056C156.699 5.30875 157.458 5.44792 158.423 5.44792V2.95211ZM161.199 1.96505C160.638 2.33896 160.297 2.56078 159.916 2.71326C159.566 2.85326 159.131 2.95211 158.423 2.95211V5.44792C159.389 5.44792 160.147 5.3088 160.843 5.03067C161.507 4.76501 162.063 4.38852 162.584 4.04172L161.199 1.96505ZM161.185 1.97496L161.185 1.97506L162.598 4.03171L162.599 4.03162L161.185 1.97496ZM168.023 -0.247499C164.522 -0.247499 162.601 1.03041 161.199 1.96496L162.584 4.04163C163.859 3.1914 165.27 2.24831 168.023 2.24831V-0.247499ZM171.671 3.40039C171.671 1.38593 170.038 -0.247499 168.023 -0.247499V2.24831C168.659 2.24831 169.175 2.76406 169.175 3.40039H171.671ZM168.023 7.04808C170.038 7.04808 171.671 5.41485 171.671 3.40039H169.175C169.175 4.03652 168.659 4.55227 168.023 4.55227V7.04808ZM165.246 8.03531C165.807 7.66138 166.148 7.43953 166.53 7.28699C166.88 7.14696 167.315 7.04808 168.023 7.04808V4.55227C167.057 4.55227 166.299 4.69143 165.603 4.9696C164.939 5.23528 164.382 5.6118 163.862 5.95852L165.246 8.03531ZM165.223 8.05027L165.223 8.05018L163.885 5.94366L163.885 5.94374L165.223 8.05027ZM165.269 8.01941L165.269 8.01933L163.838 5.97468L163.838 5.97476L165.269 8.01941ZM158.423 10.2479C161.924 10.2479 163.844 8.96993 165.246 8.03539L163.861 5.95878C162.586 6.80901 161.175 7.75208 158.423 7.75208V10.2479ZM151.601 8.03576C153.002 8.97012 154.923 10.2479 158.423 10.2479V7.75208C155.671 7.75208 154.26 6.80912 152.985 5.95902L151.601 8.03576ZM151.599 8.03493L151.6 8.03531L152.985 5.95947L152.985 5.95908L151.599 8.03493ZM148.823 7.04808C149.531 7.04808 149.966 7.14697 150.316 7.28702C150.698 7.43956 151.039 7.66142 151.6 8.03534L152.984 5.95867C152.464 5.61188 151.907 5.23533 151.243 4.96963C150.547 4.69144 149.789 4.55227 148.823 4.55227V7.04808ZM146.047 8.03509C146.608 7.66123 146.949 7.43943 147.33 7.28695C147.68 7.14695 148.115 7.04808 148.823 7.04808V4.55227C147.858 4.55227 147.099 4.69141 146.403 4.96957C145.739 5.23525 145.183 5.61177 144.662 5.95851L146.047 8.03509ZM139.224 10.2477C142.724 10.2477 144.645 8.96966 146.047 8.03514L144.663 5.95847C143.387 6.80874 141.976 7.75187 139.224 7.75187V10.2477ZM132.401 8.0351C133.803 8.96977 135.723 10.2477 139.224 10.2477V7.75187C136.472 7.75187 135.061 6.80883 133.785 5.9585L132.401 8.0351ZM132.404 8.03709L132.404 8.03753L133.781 5.95607L133.781 5.95563L132.404 8.03709ZM129.625 7.04808C130.332 7.04808 130.767 7.14692 131.117 7.28688C131.498 7.43933 131.839 7.66106 132.4 8.03479L133.784 5.95794C133.264 5.61141 132.708 5.23504 132.044 4.96946C131.348 4.69139 130.59 4.55227 129.625 4.55227V7.04808ZM126.849 8.03505C127.41 7.66116 127.751 7.43937 128.132 7.2869C128.482 7.14692 128.917 7.04808 129.625 7.04808V4.55227C128.659 4.55227 127.901 4.69139 127.205 4.96954C126.541 5.23522 125.984 5.61173 125.464 5.95856L126.849 8.03505ZM120.026 10.2477C123.527 10.2477 125.447 8.96965 126.849 8.03506L125.464 5.95854C124.189 6.80875 122.778 7.75187 120.026 7.75187V10.2477ZM113.204 8.03548C114.606 8.96985 116.526 10.2477 120.026 10.2477V7.75187C117.275 7.75187 115.864 6.80893 114.589 5.95883L113.204 8.03548ZM113.2 8.03295L113.201 8.03331L114.592 5.96101L114.591 5.96065L113.2 8.03295ZM110.427 7.04788C111.135 7.04788 111.57 7.14676 111.92 7.2868C112.302 7.43934 112.643 7.6612 113.204 8.03514L114.588 5.95847C114.068 5.6117 113.511 5.23514 112.847 4.96944C112.151 4.69124 111.393 4.55206 110.427 4.55206V7.04788ZM110.102 7.03353C110.21 7.04305 110.318 7.04788 110.427 7.04788V4.55206C110.392 4.55206 110.357 4.55049 110.323 4.54747L110.102 7.03353ZM109.996 7.04808C110.106 7.04808 110.215 7.04314 110.324 7.03343L110.101 4.54757C110.067 4.55066 110.031 4.55227 109.996 4.55227V7.04808ZM107.219 8.03532C107.78 7.66138 108.121 7.43953 108.502 7.287C108.853 7.14696 109.288 7.04808 109.996 7.04808V4.55227C109.03 4.55227 108.271 4.69143 107.576 4.9696C106.911 5.23528 106.355 5.6118 105.835 5.95853L107.219 8.03532ZM107.213 8.03896L107.213 8.03887L105.84 5.95497L105.84 5.95506L107.213 8.03896ZM107.197 8.04935L107.197 8.04927L105.856 5.94474L105.856 5.94481L107.197 8.04935ZM100.396 10.2479C103.897 10.2479 105.817 8.96992 107.219 8.03539L105.834 5.95877C104.559 6.80901 103.148 7.75208 100.396 7.75208V10.2479ZM93.5732 8.03576C94.9749 8.97013 96.8953 10.2479 100.396 10.2479V7.75208C97.644 7.75208 96.2328 6.80912 94.9575 5.95903L93.5732 8.03576ZM93.5725 8.03533L93.5731 8.03572L94.9575 5.95907L94.9569 5.95868L93.5725 8.03533ZM90.7957 7.04808C91.5035 7.04808 91.9388 7.14697 92.289 7.28702C92.6704 7.43956 93.0116 7.66142 93.5725 8.03534L94.9569 5.95867C94.4367 5.61188 93.8801 5.23533 93.2157 4.96963C92.52 4.69144 91.7613 4.55227 90.7957 4.55227V7.04808ZM88.0197 8.03509C88.5804 7.66123 88.9215 7.43943 89.3028 7.28695C89.6529 7.14695 90.088 7.04808 90.7957 7.04808V4.55227C89.8302 4.55227 89.0716 4.69141 88.376 4.96957C87.7117 5.23525 87.1552 5.61177 86.6352 5.95851L88.0197 8.03509ZM81.1965 10.2477C84.6971 10.2477 86.6178 8.96966 88.0196 8.03514L86.6352 5.95847C85.3598 6.80874 83.9484 7.75187 81.1965 7.75187V10.2477ZM74.3733 8.0351C75.7752 8.96978 77.6955 10.2477 81.1965 10.2477V7.75187C78.4442 7.75187 77.0332 6.80883 75.7578 5.95851L74.3733 8.0351ZM74.3722 8.03434L74.3728 8.03478L75.7583 5.95883L75.7576 5.95839L74.3722 8.03434ZM71.5972 7.04808C72.3047 7.04808 72.7397 7.14692 73.0898 7.28688C73.471 7.43933 73.8121 7.66106 74.3729 8.03479L75.757 5.95794C75.237 5.61141 74.6806 5.23504 74.0164 4.96946C73.321 4.69139 72.5625 4.55227 71.5972 4.55227V7.04808ZM68.8217 8.03505C69.3824 7.66116 69.7235 7.43937 70.1047 7.2869C70.4547 7.14692 70.8898 7.04808 71.5972 7.04808V4.55227C70.6319 4.55227 69.8734 4.69139 69.1779 4.96954C68.5136 5.23521 67.9572 5.61173 67.437 5.95856L68.8217 8.03505ZM61.9989 10.2477C65.4997 10.2477 67.4201 8.96965 68.8217 8.03506L67.4371 5.95854C66.162 6.80875 64.7509 7.75187 61.9989 7.75187V10.2477ZM55.1769 8.03547C56.5784 8.96985 58.4986 10.2477 61.9989 10.2477V7.75187C59.2474 7.75187 57.8364 6.80893 56.5613 5.95883L55.1769 8.03547ZM55.177 8.03556L55.1775 8.03591L56.5606 5.95839L56.5601 5.95804L55.177 8.03556Z" fill="#FCF8F1" mask="url(#svg-1197860524_21504_path-1-inside-1_451_9255)"></path>
</svg></defs><use href="#svg-1197860524_21504"></use></svg>